<?xml version="1.0" encoding="utf-8"?>
<!-- Generator: Adobe Illustrator 25.1.0, SVG Export Plug-In . SVG Version: 6.00 Build 0)  -->
<svg version="1.1" xmlns="http://www.w3.org/2000/svg" xmlns:xlink="http://www.w3.org/1999/xlink" x="0px" y="0px"
	 viewBox="0 0 933.3 541.6" style="enable-background:new 0 0 933.3 541.6;" xml:space="preserve">
<style type="text/css">
	.st0{fill:#FFFFFF;}
	.st1{fill:none;}
	.st2{font-family:'MyriadPro-Regular';}
	.st3{font-size:12px;}
	.st4{fill:#FF4900;}
</style>
<g id="Calque_2">
	<rect width="933.3" height="541.6"/>
</g>
<g id="Calque_1">
	<path class="st0" d="M285.4,211.1c2.4-2,3.8-5.1,3.7-8.2c0.1-3.3-1.3-6.5-3.8-8.6c-2.6-2.3-6-3.5-9.4-3.4h-16.4v42H277
		c3.5,0.1,7-1.1,9.7-3.4c2.6-2.2,4-5.5,3.9-8.9C290.7,216.7,288.7,213.1,285.4,211.1z M268.9,199.9h6.8c2.1,0,3.7,1.7,3.7,3.7
		s-1.7,3.7-3.7,3.7h-6.8V199.9z M276.9,223.9h-8v-8h8c2.2,0,4,1.8,4,4S279.1,223.9,276.9,223.9z"/>
	<path class="st0" d="M321.3,206.7c-6.2-6.3-16.3-6.3-22.6-0.1c-6.3,6.2-6.3,16.3-0.1,22.6c6.2,6.3,16.3,6.3,22.6,0.1
		c3-3,4.8-7.1,4.8-11.4C326,213.7,324.3,209.6,321.3,206.7z M314.9,223c-2.7,2.6-7.1,2.6-9.8,0c-2.6-2.9-2.6-7.3,0-10.2
		c2.7-2.6,7.1-2.6,9.8,0C317.6,215.7,317.6,220.1,314.9,223z"/>
	<path class="st0" d="M356.6,205.4c-2.1-2.2-5-3.4-8-3.3c-3.9,0-6.8,1.2-8.6,3.7v-2.8h-9v30h9v-16.4c0-4.1,2.2-6.2,5.6-6.2
		c3.1,0,5.2,1.9,5.2,5.5v17.1h9v-18.4C359.8,210.6,358.7,207.6,356.6,205.4z"/>
	<path class="st0" d="M366.3,202.9v30c0,3.1-1.4,4.4-4.8,4.2v8.6c9.4,0.5,13.8-3.5,13.8-12.8v-30H366.3z M374.6,191.1
		c-2-2.1-5.4-2.2-7.5-0.1c0,0-0.1,0.1-0.1,0.1c-2,2.2-2,5.6,0.2,7.6c2.1,2,5.3,2,7.4,0c2.1-2,2.2-5.4,0.1-7.5
		C374.7,191.2,374.6,191.1,374.6,191.1z"/>
	<path class="st0" d="M407.6,206.7c-6.2-6.3-16.3-6.3-22.6-0.1c-6.3,6.2-6.3,16.3-0.1,22.6c6.2,6.3,16.3,6.3,22.6,0.1
		c3-3,4.8-7.1,4.8-11.4C412.3,213.7,410.6,209.6,407.6,206.7z M401.2,223c-2.7,2.6-7.1,2.6-9.8,0c-2.6-2.9-2.6-7.3,0-10.2
		c2.7-2.6,7.1-2.6,9.8,0C403.9,215.7,403.9,220.1,401.2,223z"/>
	<path class="st0" d="M436.7,202.9v16.4c0,4.1-2.2,6.2-5.6,6.2c-3.1,0-5.2-1.9-5.2-5.5v-17.1h-9v18.4c0,3.9,1.1,6.9,3.2,9.1
		c2.1,2.2,5,3.4,8,3.3c3.9,0,6.8-1.2,8.6-3.7v2.8h9v-30L436.7,202.9z"/>
	<path class="st0" d="M461.3,208.2v-5.3h-9v30h9v-13.6c0-2.7,1-4.6,2.8-5.7c1.9-1.1,4-1.5,6.2-1.1v-10.2
		C466.2,202.3,462.4,204.4,461.3,208.2z"/>
	<path class="st0" d="M498.6,224c-2.2-2.2-5.8-2.3-8,0c-2.2,2.2-2.3,5.8,0,8s5.8,2.3,8,0c0,0,0,0,0,0
		C500.8,229.8,500.8,226.2,498.6,224z M489.2,190.9v12l1.8,15h7.2l1.8-15v-12H489.2z"/>
	<path class="st0" d="M262.8,268.6v-5.7h8.4v-3.3h-8.4v-5.5h9.1v-3.3h-12.6v21h12.8v-3.3H262.8z"/>
	<path class="st0" d="M283.4,260v-3.1h-3.7v-4.2l-3.2,1v3.2h-2.8v3.1h2.8v7.2c0,3.9,2,5.3,7,4.7V269c-2.5,0.1-3.7,0.1-3.7-1.8V260
		H283.4z"/>
	<path class="st0" d="M307.7,258.8c-1.4-1.5-3.3-2.3-5.3-2.3c-2.1-0.1-4,0.8-5.2,2.5v-8.1H294v21h3.2v-2.2c1.2,1.7,3.2,2.7,5.2,2.5
		c2,0,3.9-0.8,5.3-2.3C310.7,266.8,310.7,261.9,307.7,258.8L307.7,258.8z M305.3,267.8c-1.9,1.8-4.9,1.8-6.8,0
		c-0.9-0.9-1.4-2.2-1.4-3.5c0-1.3,0.4-2.5,1.4-3.4c1.9-1.8,4.9-1.8,6.8,0c0.9,0.9,1.4,2.1,1.4,3.4
		C306.7,265.7,306.2,266.9,305.3,267.8z"/>
	<path class="st0" d="M316,251.1c-0.8-0.8-2.1-0.8-2.9,0s-0.8,2.1,0,2.9c0.8,0.8,2.1,0.8,2.9,0c0,0,0,0,0,0
		C316.8,253.3,316.8,252,316,251.1C316.1,251.2,316,251.1,316,251.1z M312.9,256.9v15h3.2v-15H312.9z"/>
	<path class="st0" d="M334.5,264.4c0-2.1-0.7-4.1-2.1-5.6c-1.4-1.5-3.3-2.4-5.4-2.3c-2.1-0.1-4.2,0.7-5.7,2.3c-3,3.2-3,8.1,0,11.3
		c1.6,1.5,3.7,2.3,5.9,2.2c2.6,0.2,5.1-1.1,6.6-3.3l-2.7-1.6c-0.9,1.2-2.3,1.9-3.9,1.9c-2.5,0-4.3-1.3-4.8-3.5h11.9
		C334.4,265.3,334.5,264.9,334.5,264.4z M322.4,263.1c0.3-2.2,2.3-3.8,4.5-3.7c2.2-0.1,4,1.5,4.3,3.7H322.4z"/>
	<path class="st0" d="M345.2,256.5c-1.9-0.1-3.6,0.8-4.6,2.3v-1.9h-3.2v15h3.2v-8c0-2.9,1.5-4.3,3.8-4.3c1.7-0.1,3.2,1.1,3.4,2.9
		c0,0.2,0,0.4,0,0.6v8.9h3.3v-9.2C351,258.8,348.7,256.5,345.2,256.5z"/>
	<path class="st0" d="M364.4,256.9l-4.2,11.4l-4.2-11.4h-3.5l5.9,15h3.8l5.9-15H364.4z"/>
	<path class="st0" d="M384,264.4c0-2.1-0.7-4.1-2.1-5.6c-1.4-1.5-3.3-2.4-5.4-2.3c-2.1-0.1-4.2,0.7-5.7,2.3c-3,3.2-3,8.1,0,11.3
		c1.6,1.5,3.7,2.3,5.9,2.2c2.6,0.2,5.1-1.1,6.6-3.3l-2.7-1.6c-0.9,1.2-2.3,1.9-3.9,1.9c-2.5,0-4.3-1.3-4.8-3.5h11.9
		C383.9,265.3,384,264.9,384,264.4z M371.9,263.1c0.3-2.2,2.3-3.8,4.5-3.7c2.2-0.1,4,1.5,4.3,3.7H371.9z"/>
	<path class="st0" d="M394.7,256.5c-1.9-0.1-3.6,0.8-4.6,2.3v-1.9h-3.2v15h3.2v-8c0-2.9,1.5-4.3,3.8-4.3c1.7-0.1,3.2,1.1,3.4,2.9
		c0,0.2,0,0.4,0,0.6v8.9h3.2v-9.2C400.5,258.8,398.2,256.5,394.7,256.5z"/>
	<path class="st0" d="M414.1,256.9v8c0,2.9-1.5,4.3-3.8,4.3c-1.7,0.1-3.2-1.1-3.4-2.9c0-0.2,0-0.4,0-0.6v-8.9h-3.2v9.2
		c0,3.8,2.3,6.2,5.8,6.2c1.9,0.1,3.6-0.8,4.6-2.3v1.9h3.2v-15L414.1,256.9z"/>
	<path class="st0" d="M435.7,264.4c0-2.1-0.7-4.1-2.1-5.6c-1.4-1.5-3.3-2.4-5.4-2.3c-2.1-0.1-4.2,0.7-5.7,2.3c-3,3.2-3,8.1,0,11.3
		c1.6,1.5,3.7,2.3,5.9,2.2c2.6,0.2,5.2-1.1,6.6-3.3l-2.7-1.6c-0.9,1.2-2.3,1.9-3.9,1.9c-2.5,0-4.3-1.3-4.8-3.5h11.9
		C435.7,265.3,435.7,264.9,435.7,264.4z M423.6,263.1c0.3-2.2,2.3-3.8,4.5-3.7c2.2-0.1,4,1.5,4.3,3.7H423.6z"/>
	<path class="st0" d="M451.8,263c-1.6-0.5-2.8-1-2.8-2s1-1.6,2.2-1.6c1.2-0.1,2.3,0.6,2.8,1.7l2.7-1.5c-1.9-3.1-6-4-9.1-2.1
		c-0.1,0.1-0.3,0.2-0.4,0.3c-1,0.8-1.6,2-1.6,3.3c-0.1,3.1,3,4,5.2,4.6c1.6,0.4,2.9,1,2.9,1.9s-0.8,1.7-2.5,1.7
		c-1.5,0.1-2.9-0.7-3.3-2.2l-2.8,1.6c1,2.2,3.1,3.5,6.1,3.5c1.5,0.1,2.9-0.4,4.2-1.2c1.1-0.8,1.7-2,1.7-3.4
		C457.1,264.4,454.1,263.5,451.8,263z"/>
	<path class="st0" d="M469.8,256.9v8c0,2.9-1.5,4.3-3.8,4.3c-1.7,0.1-3.2-1.1-3.4-2.9c0-0.2,0-0.4,0-0.6v-8.9h-3.2v9.2
		c0,3.8,2.3,6.2,5.8,6.2c1.8,0.1,3.6-0.7,4.6-2.2v1.9h3.2v-15L469.8,256.9z"/>
	<path class="st0" d="M480.1,259.4v-2.5h-3.2v15h3.2v-7.6c-0.1-1.3,0.4-2.5,1.4-3.3c0.9-0.7,2.1-1,3.2-0.9v-3.5
		C482.7,256.4,480.8,257.6,480.1,259.4z"/>
	<path class="st0" d="M511,256.5c-1.9-0.1-3.6,0.8-4.6,2.4c-0.8-1.5-2.5-2.5-4.3-2.4c-1.7-0.1-3.4,0.7-4.3,2.2v-1.8h-3.2v15h3.2
		v-8.4c0-2.6,1.4-4,3.3-4s2.8,1.2,2.8,3.3v9.1h3.2v-8.4c0-2.6,1.3-4,3.3-4c1.8,0,2.9,1.2,2.9,3.3v9.1h3.2v-9.3
		C516.6,258.9,514.3,256.5,511,256.5z"/>
	<path class="st0" d="M532.8,258.8c-3.1-3.1-8.2-3.2-11.3-0.1c-3.1,3.1-3.2,8.2-0.1,11.3c3.1,3.1,8.2,3.2,11.3,0.1
		c1.5-1.5,2.4-3.6,2.4-5.7C535.2,262.3,534.3,260.2,532.8,258.8z M530.5,267.8c-1.9,1.8-4.8,1.8-6.7,0c-1.8-1.9-1.8-4.9,0-6.8
		c1.9-1.8,4.8-1.8,6.7,0C532.3,262.9,532.3,265.9,530.5,267.8z"/>
	<path class="st0" d="M545.9,256.5c-1.9-0.1-3.6,0.8-4.7,2.3v-1.9H538v15h3.2v-8c0-2.9,1.5-4.3,3.8-4.3c1.7-0.1,3.2,1.1,3.4,2.9
		c0,0.2,0,0.4,0,0.6v8.9h3.2v-9.2C551.7,258.8,549.4,256.5,545.9,256.5z"/>
	<path class="st0" d="M572.8,261v3.1h7c-0.6,2.9-3.1,4.8-6.8,4.8c-2.1,0.1-4.1-0.7-5.6-2.1c-1.4-1.4-2.2-3.4-2.1-5.4
		c-0.1-2,0.7-4,2.1-5.4c1.4-1.4,3.4-2.2,5.4-2.2c2.5-0.1,4.9,1.2,6.2,3.3l3-1.7c-1.9-3.2-5.4-5.1-9.2-5c-2.9-0.1-5.8,1.1-7.9,3.2
		c-4.2,4.3-4.2,11.2,0,15.4c2.1,2.1,5,3.2,8,3.1c2.7,0.1,5.4-0.9,7.4-2.7c1.9-1.9,2.9-4.4,2.8-7.1V261H572.8z"/>
	<path class="st0" d="M586.5,250.9v21h3.5v-21H586.5z"/>
	<path class="st0" d="M592.5,250.9v3.3h5.9v17.7h3.5v-17.7h5.9v-3.3H592.5z"/>
	<path class="st0" d="M622.8,250.9v8.6h-9v-8.6h-3.5v21h3.5v-9.1h9v9.1h3.5v-21H622.8z"/>
	<path class="st0" d="M642.7,250.9v13.8c0,2.5-1.5,4.2-4.5,4.2s-4.5-1.6-4.5-4.2v-13.8h-3.5v14c-0.1,2,0.7,4,2.2,5.4
		c3.4,2.6,8.1,2.6,11.5,0c1.5-1.4,2.3-3.3,2.2-5.4v-14H642.7z"/>
	<path class="st0" d="M662.4,261c1.4-1,2.2-2.6,2.1-4.3c0-1.6-0.6-3.1-1.8-4.1c-1.2-1.1-2.7-1.7-4.3-1.7h-8.3v21h9
		c1.7,0,3.3-0.6,4.5-1.7c1.2-1.1,1.9-2.7,1.8-4.3C665.4,263.8,664.3,261.9,662.4,261z M653.5,254.1h4.9c1.5,0,2.8,1.2,2.8,2.8
		c0,1.5-1.2,2.8-2.8,2.8h-4.9V254.1z M659.1,268.6h-5.5v-5.9h5.5c1.6,0,2.9,1.3,2.9,2.9S660.7,268.6,659.1,268.6z"/>
	<path class="st0" d="M669.2,267.7c-1.2,0-2.2,1-2.2,2.2c0,0,0,0,0,0c0,1.2,1,2.2,2.2,2.2s2.2-1,2.2-2.2S670.5,267.8,669.2,267.7
		L669.2,267.7z"/>
	<rect x="121.9" y="480.4" class="st1" width="360.3" height="29.5"/>
	<text transform="matrix(1 0 0 1 121.8516 488.9548)"><tspan x="0" y="0" class="st0 st2 st3">gabvoissiere@yahoo.fr</tspan><tspan x="0" y="14.4" class="st0 st2 st3">06 93 90 13 10</tspan></text>
	<polygon class="st4" points="0,70.2 69.8,0.4 113,0.4 -0.8,114.2 	"/>
	<polygon class="st4" points="0,143.3 142.9,0.4 159.2,0.4 -0.2,159.7 	"/>
</g>
</svg>
